<svg xmlns="http://www.w3.org/2000/svg" viewBox="0 0 32 32" width="32" height="32">
  <rect width="32" height="32" rx="7" fill="#0B1F3A"/>
  <g transform="translate(4.098 27.201) scale(0.20571)">
      <rect x="0" y="-45.4" width="27" height="45.4" rx="4.5" fill="#4A6A96"/>
      <rect x="36.2" y="-69.7" width="27" height="69.7" rx="4.5" fill="#F4A833"/>
      <rect x="73" y="-110.3" width="27.6" height="110.3" rx="4.5" fill="#1D9E75"/>
      <path d="M -5.93 1.40 L -3.62 1.32 L -1.28 1.18 L 1.08 1.00 L 3.45 0.77 L 5.84 0.49 L 8.25 0.16 L 10.67 -0.22 L 13.11 -0.66 L 15.56 -1.14 L 18.02 -1.68 L 20.49 -2.27 L 22.98 -2.90 L 25.47 -3.59 L 27.98 -4.33 L 30.49 -5.12 L 33.00 -5.96 L 35.53 -6.85 L 38.05 -7.79 L 40.59 -8.78 L 43.12 -9.82 L 45.66 -10.91 L 48.19 -12.05 L 50.73 -13.24 L 53.26 -14.48 L 55.80 -15.76 L 58.32 -17.10 L 60.85 -18.49 L 63.37 -19.93 L 65.88 -21.42 L 68.38 -22.95 L 70.88 -24.54 L 73.37 -26.17 L 75.84 -27.85 L 78.30 -29.59 L 80.76 -31.37 L 83.19 -33.20 L 85.61 -35.08 L 88.02 -37.00 L 90.41 -38.98 L 92.78 -41.00 L 95.13 -43.08 L 97.46 -45.20 L 99.77 -47.37 L 102.05 -49.59 L 104.31 -51.85 L 106.55 -54.17 L 108.76 -56.53 L 110.95 -58.94 L 114.77 -54.18 L 121.78 -89.72 L 93.42 -67.18 L 101.05 -67.06 L 99.21 -64.64 L 97.33 -62.26 L 95.41 -59.92 L 93.47 -57.63 L 91.50 -55.37 L 89.50 -53.16 L 87.47 -50.99 L 85.41 -48.87 L 83.33 -46.78 L 81.22 -44.75 L 79.09 -42.75 L 76.93 -40.80 L 74.76 -38.90 L 72.56 -37.04 L 70.35 -35.23 L 68.12 -33.46 L 65.87 -31.74 L 63.60 -30.06 L 61.32 -28.44 L 59.03 -26.86 L 56.72 -25.33 L 54.40 -23.84 L 52.07 -22.41 L 49.74 -21.02 L 47.39 -19.69 L 45.04 -18.40 L 42.68 -17.17 L 40.32 -15.98 L 37.95 -14.85 L 35.59 -13.76 L 33.22 -12.73 L 30.85 -11.75 L 28.48 -10.82 L 26.12 -9.94 L 23.75 -9.12 L 21.40 -8.35 L 19.05 -7.63 L 16.70 -6.97 L 14.37 -6.36 L 12.04 -5.80 L 9.73 -5.31 L 7.42 -4.86 L 5.13 -4.47 L 2.86 -4.14 L 0.60 -3.87 L -1.64 -3.65 L -3.86 -3.49 L -6.07 -3.40 Z" fill="#0B1F3A" stroke="#0B1F3A" stroke-width="6.8" stroke-linejoin="round"/>
      <path d="M -5.93 1.40 L -3.62 1.32 L -1.28 1.18 L 1.08 1.00 L 3.45 0.77 L 5.84 0.49 L 8.25 0.16 L 10.67 -0.22 L 13.11 -0.66 L 15.56 -1.14 L 18.02 -1.68 L 20.49 -2.27 L 22.98 -2.90 L 25.47 -3.59 L 27.98 -4.33 L 30.49 -5.12 L 33.00 -5.96 L 35.53 -6.85 L 38.05 -7.79 L 40.59 -8.78 L 43.12 -9.82 L 45.66 -10.91 L 48.19 -12.05 L 50.73 -13.24 L 53.26 -14.48 L 55.80 -15.76 L 58.32 -17.10 L 60.85 -18.49 L 63.37 -19.93 L 65.88 -21.42 L 68.38 -22.95 L 70.88 -24.54 L 73.37 -26.17 L 75.84 -27.85 L 78.30 -29.59 L 80.76 -31.37 L 83.19 -33.20 L 85.61 -35.08 L 88.02 -37.00 L 90.41 -38.98 L 92.78 -41.00 L 95.13 -43.08 L 97.46 -45.20 L 99.77 -47.37 L 102.05 -49.59 L 104.31 -51.85 L 106.55 -54.17 L 108.76 -56.53 L 110.95 -58.94 L 114.77 -54.18 L 121.78 -89.72 L 93.42 -67.18 L 101.05 -67.06 L 99.21 -64.64 L 97.33 -62.26 L 95.41 -59.92 L 93.47 -57.63 L 91.50 -55.37 L 89.50 -53.16 L 87.47 -50.99 L 85.41 -48.87 L 83.33 -46.78 L 81.22 -44.75 L 79.09 -42.75 L 76.93 -40.80 L 74.76 -38.90 L 72.56 -37.04 L 70.35 -35.23 L 68.12 -33.46 L 65.87 -31.74 L 63.60 -30.06 L 61.32 -28.44 L 59.03 -26.86 L 56.72 -25.33 L 54.40 -23.84 L 52.07 -22.41 L 49.74 -21.02 L 47.39 -19.69 L 45.04 -18.40 L 42.68 -17.17 L 40.32 -15.98 L 37.95 -14.85 L 35.59 -13.76 L 33.22 -12.73 L 30.85 -11.75 L 28.48 -10.82 L 26.12 -9.94 L 23.75 -9.12 L 21.40 -8.35 L 19.05 -7.63 L 16.70 -6.97 L 14.37 -6.36 L 12.04 -5.80 L 9.73 -5.31 L 7.42 -4.86 L 5.13 -4.47 L 2.86 -4.14 L 0.60 -3.87 L -1.64 -3.65 L -3.86 -3.49 L -6.07 -3.40 Z" fill="#FFFFFF"/>
    </g>
</svg>
